<svg width="2" height="2" viewBox="0 0 2 2" fill="none" xmlns="http://www.w3.org/2000/svg">
<g id="Ball" clip-path="url(#clip0)">
<g id="Ball_2">
<g id="Football">
<path id="Vector" d="M1.06299 0.227207C0.993232 0.191412 0.917991 0.169887 0.839322 0.16317C0.757895 0.156274 0.676443 0.165623 0.597085 0.191072C0.517886 0.216603 0.445523 0.256446 0.382092 0.309929C0.320805 0.361527 0.270405 0.423343 0.232295 0.493729C0.194185 0.564116 0.170284 0.639528 0.161195 0.717911C0.151843 0.79904 0.158852 0.879715 0.182135 0.957832C0.205383 1.03583 0.243529 1.10665 0.295393 1.16815C0.345545 1.22753 0.406309 1.2758 0.476067 1.31159C0.545825 1.34739 0.621066 1.36891 0.699735 1.37563C0.781162 1.38252 0.862614 1.37317 0.941972 1.34772C1.02121 1.32231 1.09366 1.28231 1.15712 1.22895C1.21841 1.17735 1.26881 1.11554 1.30692 1.04515C1.34503 0.974764 1.36893 0.899349 1.37802 0.820968C1.38737 0.739838 1.38037 0.659165 1.35708 0.581047C1.33383 0.503051 1.29569 0.432229 1.24383 0.37073C1.19351 0.311264 1.13278 0.263123 1.06299 0.227207ZM0.310927 0.425921C0.315039 0.42021 0.318955 0.414296 0.323263 0.408788C0.345906 0.379965 0.372758 0.353918 0.4009 0.330385C0.460873 0.280273 0.530753 0.241626 0.605051 0.2178C0.654542 0.201929 0.707222 0.192222 0.758823 0.189784C0.742185 0.203372 0.723378 0.225108 0.694331 0.270094C0.661103 0.277023 0.628486 0.28735 0.596685 0.300875C0.555176 0.318579 0.515016 0.341706 0.477398 0.369742C0.44342 0.395013 0.417883 0.419573 0.401046 0.437484C0.366809 0.436484 0.322983 0.43643 0.301353 0.436445C0.304728 0.436428 0.309299 0.428174 0.310927 0.425921ZM0.889161 0.398881L0.869159 0.701045L0.641701 0.8239L0.38214 0.685258C0.368217 0.589099 0.407887 0.4872 0.407887 0.4872C0.408184 0.486838 0.441065 0.443817 0.501114 0.399405C0.536096 0.373412 0.573264 0.352043 0.611795 0.335694C0.643262 0.322408 0.675619 0.312564 0.708584 0.306119L0.889161 0.398881ZM0.224881 0.922961C0.230407 0.96418 0.24118 1.00531 0.256592 1.04523C0.248954 1.0373 0.242739 1.03051 0.23798 1.02498C0.22671 1.00077 0.217109 0.975366 0.209215 0.948883C0.184954 0.867485 0.179783 0.784358 0.191247 0.704416C0.198531 0.74201 0.21152 0.779239 0.222658 0.807079C0.21901 0.845649 0.219746 0.884411 0.224881 0.922961ZM0.336313 1.11763C0.324516 1.09891 0.308944 1.07117 0.294929 1.03639C0.279168 0.997125 0.268293 0.956558 0.262985 0.916066C0.258876 0.88504 0.257859 0.853956 0.260006 0.823052C0.290544 0.776257 0.338452 0.739198 0.36548 0.720548L0.620216 0.856611L0.664655 1.08101L0.492324 1.20509C0.433196 1.18545 0.37955 1.15154 0.336313 1.11763ZM1.01088 1.24683C0.976482 1.28794 0.870816 1.32902 0.827597 1.3446C0.77682 1.35117 0.725518 1.35099 0.675228 1.34422C0.63129 1.33834 0.588022 1.32746 0.546806 1.31167C0.547097 1.31038 0.524023 1.25428 0.51797 1.23307L0.692095 1.10775L0.943146 1.13119L1.01114 1.24635C1.01097 1.24667 1.01088 1.24683 1.01088 1.24683ZM1.32369 0.93582C1.30454 0.993604 1.27787 1.05021 1.24003 1.09881C1.2045 1.14428 1.1477 1.1742 1.09696 1.19993C1.09307 1.20184 1.04456 1.22645 1.04368 1.22487L0.975651 1.10959L1.08461 0.898555L1.28671 0.813114C1.29962 0.844645 1.31798 0.8908 1.3291 0.919046C1.32727 0.92469 1.32556 0.930296 1.32369 0.93582ZM1.27816 0.771268C1.27778 0.77272 1.27744 0.774294 1.27713 0.775991L1.07586 0.861031L0.907393 0.705023L0.927461 0.402172L1.07228 0.365446C1.10994 0.380655 1.14498 0.399766 1.1766 0.422369C1.21617 0.450806 1.25054 0.484907 1.2786 0.523692C1.30307 0.663855 1.28672 0.742832 1.27816 0.771268ZM1.26173 0.443517C1.2426 0.424231 1.22162 0.406468 1.19911 0.390393C1.16354 0.364933 1.12394 0.34369 1.08129 0.327154C1.06583 0.298436 1.03414 0.255625 0.972599 0.219724C0.973644 0.220054 0.974725 0.220506 0.975772 0.220836C0.979226 0.221991 0.982593 0.223307 0.986047 0.224462C1.0254 0.238995 1.06289 0.257718 1.09788 0.280305C1.1629 0.322412 1.21894 0.377513 1.2615 0.442262C1.26152 0.442788 1.26162 0.443153 1.26173 0.443517Z" fill="#00ECFF"/>
</g>
</g>
</g>
<defs>
<clipPath id="clip0">
<rect width="2" height="2" fill="white"/>
</clipPath>
</defs>
</svg>
