<?xml version="1.0" encoding="UTF-8" standalone="no"?>
<!DOCTYPE svg PUBLIC "-//W3C//DTD SVG 1.1//EN" "http://www.w3.org/Graphics/SVG/1.1/DTD/svg11.dtd">
<svg width="100%" height="100%" viewBox="0 0 512 512" version="1.1" xmlns="http://www.w3.org/2000/svg" xmlns:xlink="http://www.w3.org/1999/xlink" xml:space="preserve" xmlns:serif="http://www.serif.com/" style="fill-rule:evenodd;clip-rule:evenodd;stroke-linecap:round;stroke-linejoin:round;stroke-miterlimit:1.5;">
    <g id="Outline">
        <rect x="-21.973" y="-6.96" width="558.452" height="647.516" style="stroke:white;stroke-width:5px;"/>
        <path d="M416,144L416,124.73C415.942,73.882 374.118,32.058 323.27,32L292.73,32C261.92,31.992 233.051,47.342 215.83,72.89L202.572,63.933C222.763,33.983 256.61,15.988 292.73,16L323.27,16C382.892,16.067 431.933,65.108 432,124.73L432,144L416,144ZM216,124.73L232,124.73C232.088,103.44 243.289,83.673 261.509,72.658L253.255,58.951C230.246,72.869 216.104,97.839 216,124.73ZM292.73,64L292.73,48C284.485,47.993 276.293,49.32 268.472,51.93L273.54,67.105C279.727,65.042 286.208,63.994 292.73,64ZM304,232C286.445,232 272,217.555 272,200C272,182.445 286.445,168 304,168C321.555,168 336,182.445 336,200C335.98,217.547 321.547,231.98 304,232ZM304,216C312.777,216 320,208.777 320,200C320,191.223 312.777,184 304,184C295.223,184 288,191.223 288,200C288.01,208.773 295.227,215.99 304,216ZM113.854,248.722C117.893,240.881 120,232.188 120,223.368C120,192.994 95.006,168 64.632,168C64.628,168 64.624,168 64.62,168L33.4,168C35.993,175.221 41.907,180.771 49.278,182.9L63.91,187.081C70.845,189.081 76.951,193.273 81.31,199.026C85.673,204.777 88.025,211.807 88.002,219.026C87.994,229.744 82.807,239.823 74.089,246.059L64.453,252.945C48.82,264.12 37.885,280.715 33.784,299.488L18.153,296.073C23.1,273.425 36.293,253.406 55.153,239.926L64.792,233.037C69.312,229.804 72,224.577 72,219.02C72,211.353 66.879,204.566 59.507,202.461L44.882,198.282C27.87,193.366 16.057,177.707 16,160C16,155.611 19.611,152 24,152L64.62,152C103.775,152.013 135.987,184.235 135.987,223.39C135.987,246.417 124.846,268.076 106.113,281.467L92.919,290.89C85.963,295.871 81.378,303.524 80.268,312.007C103.35,312.144 124.093,326.518 132.326,348.082C144.376,341.947 151.996,329.522 152,316L152,248C151.98,234.07 159.261,221.103 171.164,213.868C163.945,198.872 169.582,180.619 184,172.305L184,124.73C183.957,108.407 187.626,92.285 194.727,77.587L209.141,84.533C203.088,97.066 199.962,110.812 200,124.73L200,168C200.011,168 200.021,168 200.032,168C217.586,168 232.032,182.445 232.032,200C232.032,217.555 217.586,232 200.032,232C193.509,232 187.14,230.006 181.782,226.286C179.275,227.467 176.99,229.07 175.027,231.026C170.514,235.517 167.982,241.633 168,248L168,316C167.988,337.009 155.26,356.04 135.847,364.073C135.938,365.373 136,366.678 136,368L136,400C136.007,417.557 150.456,432 168.013,432C173.387,432 178.675,430.647 183.388,428.066L191.097,442.086C184.022,445.966 176.081,448 168.012,448C141.678,448 120.007,426.334 120,400L120,368C119.975,346.066 101.934,328.025 80,328L33.4,328C35.993,335.221 41.906,340.77 49.277,342.9L70.597,348.991C80.849,351.957 87.968,361.396 88,372.069L88,400C88,443.887 124.113,480 168,480C211.887,480 248,443.887 248,400L248,264L264,264L264,400C263.952,452.631 220.631,495.912 168,495.912C117.592,495.912 75.331,456.209 72.187,405.9C62.217,401.041 53.127,394.551 45.293,386.7C41.349,382.756 37.738,378.491 34.5,373.95L47.531,364.668C54.076,373.856 62.397,381.641 72,387.561L72,372.069C71.989,368.512 69.617,365.366 66.2,364.377L44.88,358.286C27.869,353.367 16.056,337.708 16,320C16,315.611 19.611,312 24,312L64.192,312C65.368,298.338 72.474,285.855 83.621,277.869L96.811,268.45C103.974,263.317 109.816,256.555 113.854,248.722ZM184,200C184,208.777 191.223,216 200,216C208.777,216 216,208.777 216,200C216,191.223 208.777,184 200,184C191.227,184.01 184.01,191.227 184,200ZM193.6,419.2L206.392,428.811C212.654,420.516 216.029,410.393 216,400L216,264L200,264L200,316C200.052,349.81 179.646,380.484 148.441,393.5L154.623,408.258C173.229,400.487 189.052,387.261 200,370.329L200,400C200.021,406.926 197.772,413.672 193.6,419.2ZM443.468,208.656C441.206,211.636 439.987,215.279 440,219.02C440.002,224.573 442.689,229.796 447.206,233.027L456.852,239.921C481.394,257.462 495.993,285.834 496,316C495.989,346.236 482.275,374.894 458.735,393.871L448.69,381.417C456.836,374.854 463.681,366.823 468.869,357.739C468.293,357.933 467.711,358.117 467.122,358.286L445.8,364.377C442.383,365.366 440.011,368.512 440,372.069L440,400C440.004,423.111 431.659,445.463 416.51,462.917L404.43,452.426C417.052,437.882 424.005,419.257 424,400L424,372.069C424.033,361.396 431.153,351.956 441.407,348.992L462.726,342.901C470.095,340.77 476.008,335.22 478.6,328L432,328C410.066,328.025 392.025,346.066 392,368L392,400C392,426.332 370.332,448 344,448C317.668,448 296,426.332 296,400L296,264L312,264L312,316C312.113,354.522 338.613,388.301 376,397.581L376,368C376,366.678 376.062,365.372 376.153,364.073C356.74,356.04 344.012,337.009 344,316L344,264C344,251.526 347.072,239.241 352.942,228.235L367.06,235.765C362.426,244.454 360.001,254.152 360,264L360,316C360.002,329.522 367.622,341.949 379.674,348.081C387.908,326.517 408.65,312.144 431.732,312.007C430.622,303.524 426.037,295.872 419.082,290.891L405.891,281.47C387.139,268.083 375.985,246.413 375.985,223.373C375.985,195.798 391.963,170.588 416.9,158.818C416.983,158.779 417.067,158.741 417.151,158.705C426.608,154.266 436.933,151.976 447.38,152L488,152C492.389,152 496,155.611 496,160C495.944,177.708 484.129,193.367 467.116,198.282L452.488,202.462C448.885,203.484 445.715,205.66 443.468,208.656ZM373.068,413.345C347.89,407.353 325.991,391.828 312,370.055L312,400C312,400.002 312,400.005 312,400.007C312,417.558 326.442,432 343.993,432C356.477,432 367.868,424.693 373.073,413.345L373.068,413.345ZM424,219.02C423.979,211.8 426.334,204.77 430.7,199.02C435.057,193.271 441.159,189.082 448.09,187.083L462.725,182.9C470.095,180.77 476.008,175.221 478.6,168L447.38,168C439.208,167.979 431.133,169.784 423.748,173.283C423.676,173.317 423.604,173.35 423.53,173.383C404.303,182.571 392.01,202.069 392.01,223.379C392.01,241.25 400.655,258.06 415.193,268.454L428.38,277.871C439.526,285.857 446.632,298.339 447.808,312L479.888,312C478.672,288.43 466.753,266.662 447.551,252.94L437.908,246.049C429.193,239.813 424.008,229.736 424,219.02ZM344,480C314.626,480.009 287.52,463.838 273.574,437.986L259.5,445.6C276.241,476.607 308.757,496.004 343.994,496.004C366.786,496.004 388.85,487.889 406.21,473.122L395.837,460.941C381.371,473.241 362.989,480 344,480Z" style="fill:none;fill-rule:nonzero;stroke:white;stroke-width:5px;stroke-linecap:butt;stroke-miterlimit:2;"/>
        <circle cx="200.002" cy="199.998" r="7.998" style="fill:rgb(0,236,255);"/>
        <circle cx="304.002" cy="199.998" r="7.998" style="fill:rgb(0,236,255);"/>
    </g>
</svg>
