<svg width="2" height="2" viewBox="0 0 2 2" fill="none" xmlns="http://www.w3.org/2000/svg">
<g id="octopus_poly_white 1" clip-path="url(#clip0)">
<g id="Body">
<path id="Vector" d="M1.55689 0.537339C1.55793 0.491244 1.55831 0.4266 1.54997 0.380776C1.52861 0.263492 1.45712 0.161378 1.36129 0.109375C1.30982 0.0814427 1.25446 0.0705577 1.19802 0.06648C1.11112 0.0602012 1.0185 0.0701417 0.940131 0.116511C0.915637 0.130999 0.892725 0.149278 0.872079 0.170021C0.852199 0.189993 0.839791 0.225465 0.811393 0.235867C0.790684 0.243457 0.75895 0.223027 0.769247 0.197383C0.772856 0.188399 0.796526 0.161516 0.798075 0.159835C0.843455 0.110523 0.889068 0.061437 0.950768 0.0385977C1.16082 -0.0391658 1.42487 -0.00862464 1.55262 0.215196C1.5946 0.288744 1.60884 0.363246 1.61548 0.449364C1.61749 0.475324 1.63522 0.554353 1.58878 0.546318C1.57795 0.544445 1.56731 0.541158 1.55689 0.537339ZM0.817441 0.457158C0.827402 0.459459 0.837462 0.461373 0.847589 0.462417C0.852562 0.462929 0.857634 0.462712 0.862563 0.461818C0.886713 0.457441 0.876923 0.446348 0.878616 0.424295C0.879444 0.41348 0.88123 0.402658 0.88431 0.392376C0.890399 0.372033 0.896603 0.351466 0.906009 0.332792C0.917053 0.310855 0.940827 0.276286 0.961687 0.259326C0.964171 0.257304 0.987501 0.250676 0.9857 0.24049C0.983474 0.227899 0.973924 0.186352 0.955183 0.183456C0.951057 0.18282 0.947441 0.187097 0.944021 0.189772C0.937358 0.194994 0.931225 0.201032 0.925095 0.207024C0.8986 0.232913 0.884354 0.247505 0.863827 0.283027C0.853937 0.300149 0.845489 0.318428 0.838649 0.33734C0.824902 0.375341 0.817582 0.41611 0.817441 0.457158ZM1.10113 0.204465C1.10288 0.193293 1.10433 0.182041 1.10511 0.170732C1.1055 0.165148 1.10532 0.159485 1.10465 0.153939C1.10312 0.141348 1.10294 0.132576 1.09153 0.135152C1.08708 0.136155 1.0828 0.138052 1.07832 0.138905C1.07083 0.140332 1.0632 0.140615 1.0557 0.14198C1.0377 0.145263 1.03797 0.145692 1.01978 0.148234C1.0177 0.148525 1.0137 0.148941 1.01219 0.151563C1.00908 0.156976 1.01144 0.164541 1.01235 0.170907C1.01394 0.182021 1.01769 0.193068 1.02231 0.202988C1.02513 0.209021 1.02748 0.219174 1.03354 0.219065C1.03868 0.21897 1.04256 0.213248 1.04753 0.211742C1.06352 0.20689 1.08461 0.204448 1.10113 0.204465ZM1.1428 0.9035C1.12891 0.9035 1.10956 0.899934 1.09693 0.892969C1.07318 0.879853 1.05793 0.867446 1.04381 0.841981C1.03207 0.820789 1.02611 0.79522 1.02611 0.77035C1.02611 0.745481 1.03207 0.719912 1.04381 0.69872C1.08835 0.61836 1.19429 0.61816 1.24079 0.696124C1.25393 0.718156 1.26111 0.743758 1.26111 0.77035C1.26104 0.843362 1.20768 0.903417 1.1428 0.9035ZM1.1428 0.836925C1.1884 0.836925 1.21634 0.777915 1.1923 0.734533C1.18524 0.721805 1.17761 0.715597 1.16574 0.709043C1.15942 0.705556 1.14974 0.703776 1.1428 0.703776C1.13586 0.703776 1.12618 0.705556 1.11987 0.709043C1.10799 0.715597 1.10036 0.721801 1.09331 0.734533C1.06926 0.777911 1.09724 0.836863 1.1428 0.836925ZM0.235783 0.703172L0.255124 0.716595C0.352624 0.748243 0.374231 0.89641 0.292758 0.961998C0.292758 0.961998 0.250628 1.0181 0.237203 1.00038C0.233539 0.99554 0.204519 0.979354 0.201979 0.974273C0.196504 0.963313 0.216964 0.955591 0.224204 0.946016L0.258385 0.907815C0.289338 0.882895 0.282532 0.835128 0.262134 0.804262C0.230822 0.75689 0.151848 0.753261 0.136423 0.689895C0.126414 0.648776 0.130078 0.572469 0.18279 0.572469L0.257749 0.570626C0.451382 0.570697 0.576805 0.811398 0.492359 1.00354C0.474287 1.04466 0.444191 1.08275 0.41116 1.10933L0.362378 1.14854C0.33666 1.16926 0.319708 1.20111 0.315604 1.2364C0.400944 1.23697 0.477636 1.29678 0.508076 1.38651C0.552628 1.36098 0.580801 1.30928 0.580816 1.25302V0.970075C0.580742 0.912113 0.607662 0.858158 0.651671 0.828054C0.62498 0.765657 0.645821 0.689707 0.699129 0.655114V0.457158C0.69897 0.389239 0.712535 0.322156 0.738789 0.260999L0.792082 0.289901C0.769702 0.34205 0.758144 0.399246 0.758285 0.457158V0.637201C0.773928 0.637184 0.78983 0.640966 0.804268 0.647732C0.818251 0.654286 0.831188 0.664334 0.841899 0.676384C0.852606 0.688434 0.861165 0.703176 0.867354 0.71873C0.914236 0.83658 0.782753 0.951471 0.690928 0.879724C0.660167 0.896027 0.639873 0.931632 0.639972 0.970075V1.25302C0.639928 1.34043 0.592869 1.41962 0.521094 1.45305C0.521431 1.45845 0.52166 1.46389 0.52166 1.46939V1.60254C0.521697 1.70224 0.620321 1.76648 0.696866 1.71932L0.725368 1.77765C0.609111 1.8494 0.462537 1.75111 0.462504 1.60254V1.46939C0.462411 1.37812 0.395709 1.30305 0.314613 1.30295H0.14232C0.151907 1.33299 0.173769 1.35608 0.201022 1.36495L0.279847 1.39029C0.317752 1.40263 0.344073 1.44191 0.344191 1.48632V1.60254C0.344191 1.64412 0.352111 1.69355 0.367587 1.73159C0.389545 1.78554 0.414609 1.82487 0.456229 1.86159C0.6069 1.9945 0.837695 1.93076 0.912358 1.73159C0.927834 1.69029 0.935754 1.64739 0.935754 1.60254V1.03665H0.99491V1.60254C0.994866 1.65632 0.985334 1.70777 0.966741 1.75728C0.882572 1.98138 0.637636 2.06703 0.454336 1.93904C0.407732 1.9065 0.366829 1.86157 0.337791 1.80908C0.307233 1.75383 0.289316 1.6917 0.285726 1.62708C0.230326 1.5967 0.182158 1.5506 0.146387 1.49414L0.194566 1.45552C0.218765 1.49375 0.24953 1.52614 0.285035 1.55078V1.48632C0.284994 1.47152 0.276224 1.45843 0.263591 1.45431L0.184765 1.42897C0.121871 1.4085 0.0781947 1.34334 0.0779877 1.26966C0.0779877 1.2514 0.086044 1.23775 0.102271 1.23775L0.158156 1.24729L0.255823 1.24519C0.260171 1.18834 0.286787 1.12759 0.328001 1.09436L0.376768 1.05517C0.390126 1.04439 0.402471 1.03182 0.413297 1.01791C0.507074 0.897358 0.447389 0.721722 0.332241 0.651997C0.30673 0.636552 0.278993 0.620828 0.250025 0.620291C0.224891 0.619825 0.222684 0.639518 0.2222 0.662686C0.221915 0.676467 0.219922 0.698017 0.235783 0.703172ZM0.699129 0.77035C0.699129 0.821667 0.751563 0.853111 0.790111 0.826053C0.801421 0.818109 0.806937 0.80953 0.81276 0.796161C0.815859 0.789058 0.817441 0.778165 0.817441 0.77035C0.817441 0.762536 0.815859 0.751643 0.81276 0.74454C0.806937 0.731171 0.801425 0.722587 0.790111 0.714648C0.751567 0.68759 0.699184 0.719079 0.699129 0.77035ZM0.734622 1.68243C0.740919 1.69241 0.747666 1.70212 0.755298 1.71085C0.765458 1.72246 0.781918 1.72847 0.793058 1.71463C0.810594 1.69285 0.816362 1.62406 0.817441 1.60254C0.820329 1.54499 0.829036 1.27737 0.826085 1.17758C0.825461 1.15652 0.850672 1.02006 0.789172 1.02043C0.730226 1.02079 0.757708 1.1117 0.757767 1.15229C0.757875 1.22506 0.762888 1.29673 0.741388 1.36685C0.722677 1.42788 0.689423 1.48008 0.646143 1.52204C0.634619 1.53321 0.622255 1.54349 0.608982 1.55186C0.577518 1.57167 0.561132 1.56722 0.570479 1.61115C0.580424 1.65793 0.620724 1.62319 0.63988 1.60864C0.670272 1.58555 0.701369 1.56155 0.724669 1.52891C0.732633 1.51775 0.736578 1.5036 0.742904 1.49118C0.746014 1.48507 0.75607 1.47249 0.758285 1.47908C0.762703 1.49222 0.765047 1.50634 0.765813 1.52037C0.76687 1.53968 0.765813 1.55915 0.763713 1.57836C0.760459 1.60803 0.751948 1.65659 0.734622 1.68243ZM1.67227 0.907773L1.70794 0.936459C1.79867 1.00945 1.85265 1.1275 1.85268 1.25302C1.85264 1.37883 1.80193 1.49807 1.7149 1.57703L1.67776 1.52521C1.70788 1.4979 1.73318 1.46449 1.75237 1.42669C1.75024 1.4275 1.74808 1.42826 1.74591 1.42897L1.66707 1.45431C1.65444 1.45843 1.64567 1.47152 1.64563 1.48632V1.60254C1.64564 1.6987 1.61479 1.7917 1.55878 1.86433L1.51412 1.82068C1.56078 1.76016 1.58649 1.68266 1.58647 1.60254V1.48632C1.5866 1.44191 1.61292 1.40263 1.65083 1.39029L1.72965 1.36495C1.7569 1.35608 1.77876 1.33299 1.78834 1.30295H1.61605C1.53496 1.30305 1.46825 1.37812 1.46816 1.46939V1.60254C1.46816 1.75649 1.31085 1.85082 1.19522 1.76964C1.16128 1.74581 1.14474 1.72007 1.12726 1.67997C1.11797 1.65865 1.11322 1.62598 1.11322 1.60254V1.03665H1.17238V1.25302C1.1728 1.4133 1.27077 1.55386 1.409 1.59247V1.46939C1.409 1.46389 1.40923 1.45845 1.40957 1.45305C1.33779 1.41962 1.29074 1.34043 1.29069 1.25302V1.03665C1.29069 0.984746 1.30205 0.933629 1.32375 0.887834L1.37595 0.919166C1.35882 0.95532 1.34985 0.995673 1.34985 1.03665V1.25302C1.34986 1.30928 1.37803 1.36099 1.42259 1.3865C1.45303 1.29678 1.52972 1.23697 1.61506 1.2364C1.61096 1.20111 1.594 1.16927 1.56829 1.14854L1.51952 1.10934C1.48648 1.08279 1.45631 1.04465 1.43823 1.00353C1.35401 0.811885 1.47938 0.570118 1.67292 0.570626L1.80305 0.573451C1.81928 0.573451 1.85284 0.550966 1.85279 0.56986C1.85258 0.643542 1.80879 0.742751 1.74588 0.763202L1.6918 0.780595C1.64201 0.796485 1.62919 0.873096 1.67227 0.907773ZM1.39816 1.65806C1.30507 1.63313 1.22411 1.56853 1.17238 1.47794V1.60254C1.17236 1.72149 1.31022 1.78011 1.37976 1.69011C1.38718 1.68051 1.39347 1.66963 1.39818 1.65806H1.39816ZM1.67554 0.716604L1.72965 0.699199C1.7569 0.690336 1.77876 0.667247 1.78834 0.637201H1.67292C1.52274 0.636776 1.42562 0.824426 1.4909 0.973071C1.5049 1.00497 1.52829 1.03457 1.55391 1.05518L1.60267 1.09437C1.64388 1.12759 1.67015 1.17953 1.6745 1.23637H1.79311C1.78861 1.1383 1.74454 1.04773 1.67355 0.99063L1.63789 0.961957C1.55645 0.896372 1.57807 0.748243 1.67554 0.716604ZM1.03031 1.76059C1.01085 1.76423 0.979404 1.77012 0.978272 1.79227C0.976723 1.82264 1.00693 1.84421 1.02488 1.86695C1.05951 1.91083 1.10348 1.94522 1.15143 1.96796C1.24712 2.01333 1.3601 2.01109 1.45294 1.95758C1.47709 1.94366 1.51228 1.93583 1.5207 1.90679C1.52681 1.88569 1.502 1.85792 1.48235 1.85611C1.45997 1.85405 1.44626 1.88659 1.42628 1.89809C1.38764 1.92035 1.34427 1.93208 1.30098 1.93346C1.19047 1.93697 1.08311 1.87076 1.03031 1.76059Z" stroke="#00ECFF" stroke-width="0.00488281" stroke-miterlimit="2" stroke-linejoin="round"/>
<path id="Vector_2" d="M0.758285 0.803619C0.774616 0.803619 0.787855 0.788719 0.787855 0.77034C0.787855 0.75196 0.774616 0.737061 0.758285 0.737061C0.741953 0.737061 0.728714 0.75196 0.728714 0.77034C0.728714 0.788719 0.741953 0.803619 0.758285 0.803619Z" fill="#00ECFF"/>
<path id="Vector_3" d="M1.14279 0.803619C1.15912 0.803619 1.17236 0.788719 1.17236 0.77034C1.17236 0.75196 1.15912 0.737061 1.14279 0.737061C1.12646 0.737061 1.11322 0.75196 1.11322 0.77034C1.11322 0.788719 1.12646 0.803619 1.14279 0.803619Z" fill="#00ECFF"/>
</g>
<g id="Ball1">
<g id="Football">
<path id="Vector_4" d="M0.211597 0.979543C0.196366 0.971167 0.179924 0.965894 0.16272 0.963855C0.144914 0.961758 0.127089 0.963236 0.109709 0.968273C0.0923646 0.973329 0.0765038 0.981585 0.0625865 0.992906C0.0491392 1.00383 0.0380657 1.01708 0.0296739 1.0323C0.021282 1.04752 0.0159943 1.06395 0.0139445 1.08114C0.0118349 1.09893 0.0133045 1.11674 0.0183363 1.1341C0.0233604 1.15144 0.0316491 1.1673 0.0429459 1.1812C0.0538698 1.19463 0.0671239 1.20569 0.0823552 1.21407C0.0975866 1.22244 0.114028 1.22771 0.131232 1.22975C0.149039 1.23185 0.166863 1.23037 0.184243 1.22534C0.201595 1.22031 0.217476 1.21202 0.231401 1.20072C0.244848 1.1898 0.255922 1.17655 0.264314 1.16133C0.272705 1.14611 0.277993 1.12968 0.280043 1.11249C0.282153 1.09469 0.280683 1.07689 0.275651 1.05952C0.270627 1.04219 0.262338 1.02633 0.251042 1.01242C0.240082 0.998975 0.226836 0.987946 0.211597 0.979543ZM0.0469278 1.01793C0.0478318 1.0167 0.0486931 1.01543 0.0496398 1.01425C0.0546157 1.00807 0.0605099 1.00252 0.0666845 0.997543C0.0798429 0.986939 0.0951596 0.978929 0.111431 0.974213C0.122269 0.971072 0.133801 0.96931 0.14509 0.969141C0.14144 0.972013 0.137309 0.976664 0.13092 0.98636C0.123646 0.987649 0.116502 0.98969 0.109535 0.992441C0.100441 0.996042 0.0916382 1.00085 0.0833875 1.00675C0.0759348 1.01207 0.0703293 1.0173 0.0666322 1.02112C0.0591437 1.02066 0.0495568 1.02033 0.0448253 1.02018C0.0455636 1.0202 0.04657 1.01842 0.0469278 1.01793ZM0.173437 1.0161L0.168824 1.08247L0.118971 1.10789L0.0623016 1.07553C0.0593316 1.05426 0.0680895 1.03211 0.0680895 1.03211C0.0681549 1.03203 0.0753812 1.0228 0.0885518 1.01345C0.0962246 1.00798 0.104372 1.00354 0.112813 1.00021C0.119707 0.997512 0.126793 0.995576 0.134009 0.994391L0.173437 1.0161ZM0.0277144 1.12673C0.0288906 1.13584 0.0312148 1.14497 0.0345548 1.15387C0.0328904 1.15207 0.0315361 1.15053 0.0304996 1.14928C0.0280532 1.14387 0.025973 1.13821 0.0242671 1.13233C0.019024 1.11424 0.0179584 1.0959 0.0205289 1.07838C0.0220927 1.08671 0.0249048 1.095 0.0273192 1.10121C0.0264909 1.10967 0.0266215 1.11821 0.0277144 1.12673ZM0.0519368 1.17037C0.049371 1.16617 0.0459864 1.15995 0.0429481 1.1522C0.0395312 1.14344 0.0371843 1.13444 0.036055 1.12548C0.0351805 1.11863 0.0349825 1.11178 0.0354765 1.10499C0.0421935 1.09491 0.0527025 1.08709 0.0586295 1.08318L0.114246 1.11494L0.12379 1.16465L0.0859952 1.19074C0.0730764 1.18599 0.0613681 1.17815 0.0519368 1.17037ZM0.199395 1.20362C0.191839 1.21242 0.168692 1.22071 0.159226 1.22383C0.148113 1.22492 0.136891 1.22451 0.125896 1.22267C0.116289 1.22106 0.106833 1.21836 0.0978292 1.21459C0.0978939 1.2143 0.0928907 1.20179 0.0915832 1.19708L0.129771 1.17073L0.18467 1.17768L0.199452 1.20351C0.199415 1.20358 0.199395 1.20362 0.199395 1.20362ZM0.268067 1.13738C0.263833 1.14996 0.257954 1.16223 0.249638 1.17266C0.24183 1.18242 0.229383 1.1886 0.218262 1.1939C0.217409 1.1943 0.206778 1.19937 0.206588 1.19901L0.191798 1.17316L0.215798 1.12748L0.260074 1.11011C0.262875 1.11714 0.266853 1.12743 0.269264 1.13373C0.268859 1.13496 0.26848 1.13618 0.268067 1.13738ZM0.258237 1.10084C0.258153 1.10115 0.258077 1.1015 0.258008 1.10187L0.213913 1.11915L0.177185 1.08361L0.181813 1.01709L0.213521 1.01004C0.221747 1.01365 0.229397 1.01811 0.236295 1.02331C0.24493 1.02985 0.252421 1.0376 0.258528 1.04634C0.26377 1.07737 0.260132 1.09464 0.258237 1.10084ZM0.254902 1.02857C0.250731 1.02419 0.246156 1.02013 0.241246 1.01643C0.233483 1.01058 0.224838 1.00562 0.215521 1.00167C0.212163 0.995243 0.205264 0.985593 0.19183 0.977253C0.192058 0.977333 0.192295 0.97744 0.192523 0.97752C0.193278 0.977799 0.194013 0.978113 0.194768 0.978391C0.203365 0.98187 0.211551 0.986259 0.219188 0.99148C0.233377 1.00121 0.245592 1.01374 0.254851 1.02829C0.254855 1.02841 0.254878 1.02849 0.254902 1.02857Z" fill="#00ECFF"/>
</g>
</g>
</g>
<defs>
<clipPath id="clip0">
<rect width="2" height="2" fill="white"/>
</clipPath>
</defs>
</svg>
